<?xml version="1.0" standalone="no"?>
<!DOCTYPE svg PUBLIC "-//W3C//DTD SVG 20010904//EN"
 "http://www.w3.org/TR/2001/REC-SVG-20010904/DTD/svg10.dtd">
<svg version="1.0" xmlns="http://www.w3.org/2000/svg"
 width="964.000000pt" height="911.000000pt" viewBox="0 0 964.000000 911.000000"
 preserveAspectRatio="xMidYMid meet">
<metadata>
Created by potrace 1.16, written by Peter Selinger 2001-2019
</metadata>
<g transform="translate(0.000000,911.000000) scale(0.100000,-0.100000)"
fill="#000000" stroke="none">
<path d="M3091 9065 c-11 -20 -25 -41 -31 -48 -18 -21 -122 -189 -165 -267
-22 -41 -66 -118 -97 -170 -31 -52 -78 -135 -105 -185 -27 -49 -148 -261 -268
-470 -120 -209 -230 -403 -246 -431 -15 -29 -94 -168 -175 -310 -81 -143 -166
-293 -189 -334 -23 -41 -96 -169 -162 -285 -66 -115 -168 -295 -227 -400 -59
-104 -111 -197 -116 -205 -5 -8 -55 -96 -111 -195 -56 -99 -117 -205 -134
-235 -18 -30 -62 -107 -97 -170 -134 -238 -323 -569 -381 -670 -34 -58 -86
-150 -118 -205 -31 -55 -73 -129 -94 -165 -21 -36 -47 -83 -59 -105 -96 -175
-254 -449 -282 -488 -52 -72 -48 -85 59 -201 52 -55 116 -126 143 -157 49 -56
357 -402 688 -773 98 -111 224 -253 280 -316 55 -62 126 -141 156 -175 30 -33
120 -135 200 -225 80 -90 168 -189 196 -220 28 -30 87 -96 130 -146 44 -50
223 -252 399 -449 411 -461 625 -702 750 -845 131 -150 204 -220 232 -220 30
0 170 164 438 513 22 29 74 95 115 147 457 574 561 704 655 824 155 196 192
243 259 330 42 55 65 76 81 76 13 0 25 -7 29 -15 3 -8 85 -115 183 -236 98
-122 196 -245 218 -274 22 -29 173 -220 335 -424 376 -473 413 -521 538 -680
128 -163 219 -261 242 -261 32 0 76 45 325 329 83 96 269 305 480 541 110 123
238 267 285 320 83 93 181 204 476 535 78 88 186 210 240 270 712 802 1371
1539 1408 1575 56 54 59 85 17 152 -30 47 -40 64 -138 238 -52 92 -139 245
-263 460 -21 36 -67 117 -102 180 -89 158 -304 536 -401 705 -44 77 -93 163
-109 190 -16 28 -33 57 -38 65 -16 26 -86 152 -137 245 -27 50 -104 185 -170
300 -195 340 -492 863 -543 955 -26 47 -110 195 -187 330 -77 135 -228 400
-336 590 -420 742 -477 841 -558 963 -22 32 -39 61 -39 66 0 4 -16 26 -36 50
-31 35 -42 42 -68 39 -29 -3 -31 -6 -34 -44 -2 -31 8 -67 38 -140 23 -55 66
-166 95 -249 30 -82 68 -186 85 -230 61 -156 109 -292 155 -440 26 -82 60
-190 76 -240 16 -49 33 -111 38 -136 6 -26 15 -59 21 -74 40 -105 129 -505
156 -705 18 -128 22 -755 5 -840 -22 -113 -84 -366 -97 -398 -8 -18 -14 -40
-14 -50 0 -9 -14 -58 -30 -107 -17 -50 -37 -108 -44 -130 -33 -97 -110 -257
-185 -384 -81 -136 -244 -322 -411 -469 -104 -91 -341 -250 -495 -332 -33 -18
-66 -37 -73 -43 -26 -21 -376 -157 -404 -157 -7 0 -47 -11 -88 -24 -42 -13
-127 -31 -190 -40 -63 -10 -146 -24 -185 -31 -62 -11 -82 -11 -180 6 -362 63
-333 56 -540 125 -146 48 -359 151 -515 249 -216 135 -322 217 -470 365 -301
299 -443 569 -589 1120 -72 276 -76 309 -75 700 0 398 9 491 70 760 53 237
129 517 184 680 11 30 45 136 76 235 31 99 81 240 110 313 30 73 75 195 100
272 25 77 49 142 54 145 4 3 11 16 14 31 4 14 20 53 35 87 16 34 32 78 35 97
14 79 -63 112 -103 45z m-315 -850 c-36 -105 -85 -257 -110 -340 -26 -82 -51
-163 -57 -180 -6 -16 -19 -64 -29 -105 -10 -41 -27 -106 -38 -145 -103 -354
-146 -672 -146 -1070 -1 -315 15 -433 100 -745 119 -442 236 -693 443 -955
133 -169 428 -426 606 -529 28 -16 66 -38 86 -50 235 -136 342 -185 564 -256
298 -96 596 -131 806 -96 46 8 107 17 134 21 63 8 304 75 411 114 107 39 249
103 324 146 33 19 88 51 123 71 34 20 68 40 75 46 7 6 25 18 41 27 109 60 320
232 452 368 91 93 219 250 219 268 0 5 8 18 19 29 10 12 33 48 51 81 18 33 36
65 41 71 14 18 105 226 137 314 34 95 106 338 122 415 6 28 23 97 38 155 l27
105 0 425 c0 355 -3 443 -18 534 -9 59 -20 112 -22 117 -3 4 -14 54 -25 111
-35 183 -140 567 -235 853 -18 55 -40 123 -48 150 -31 96 -72 210 -81 223 -4
7 -6 16 -3 19 7 6 29 -30 167 -272 62 -110 134 -236 160 -280 26 -44 61 -105
77 -135 16 -30 36 -66 45 -80 8 -14 61 -106 117 -205 57 -99 107 -187 111
-195 5 -8 57 -100 116 -205 138 -245 540 -954 660 -1160 50 -88 114 -200 141
-250 40 -73 310 -547 503 -885 51 -90 160 -281 208 -365 22 -38 77 -135 122
-215 46 -80 120 -211 165 -291 45 -81 90 -157 99 -170 9 -13 16 -29 16 -35 0
-12 -77 -100 -575 -659 -176 -197 -354 -397 -395 -444 -41 -46 -113 -128 -160
-181 -47 -53 -337 -379 -645 -725 -560 -628 -711 -799 -1093 -1230 -210 -237
-246 -275 -263 -275 -5 0 -49 50 -97 112 -48 62 -122 154 -164 205 -43 51 -78
96 -78 99 0 4 -15 24 -32 45 -75 89 -108 131 -387 484 -161 204 -341 431 -401
505 -59 74 -161 201 -226 282 -117 148 -117 148 -158 148 -54 0 -54 0 -361
-390 -137 -173 -263 -333 -281 -355 -46 -56 -181 -226 -301 -382 -57 -72 -120
-151 -140 -176 -21 -25 -76 -93 -123 -153 -305 -387 -335 -424 -351 -424 -10
0 -223 234 -604 665 -49 57 -137 155 -195 220 -58 65 -143 162 -190 215 -155
175 -731 823 -845 950 -62 69 -172 193 -246 276 -153 172 -289 325 -728 819
-171 193 -311 358 -311 368 0 9 44 95 99 190 54 94 137 242 185 327 48 85 91
162 96 170 5 8 32 56 60 105 28 50 55 97 60 105 5 8 44 76 86 150 42 74 84
146 92 160 9 14 35 59 57 100 44 79 98 175 418 735 111 193 222 388 247 435
26 47 130 231 232 410 101 179 196 345 210 370 14 25 69 122 123 215 54 94
121 211 148 260 43 79 111 200 137 245 115 200 315 549 345 604 22 41 45 80
51 87 6 8 19 29 28 47 35 68 24 21 -38 -163z"/>
</g>
</svg>
